<mxfile host="app.diagrams.net" modified="2024-01-28T16:58:04.239Z" agent="Mozilla/5.0 (Macintosh; Intel Mac OS X 10_15_7) AppleWebKit/537.36 (KHTML, like Gecko) Chrome/121.0.0.0 Safari/537.36" etag="1J5w5o0nLnE4UhkMXyl3" version="23.0.2" type="google">
  <diagram id="prtHgNgQTEPvFCAcTncT" name="Page-1">
    <mxGraphModel grid="1" page="1" gridSize="10" guides="1" tooltips="1" connect="1" arrows="1" fold="1" pageScale="1" pageWidth="1169" pageHeight="827" math="0" shadow="0">
      <root>
        <mxCell id="0" />
        <mxCell id="1" parent="0" />
        <mxCell id="dNxyNK7c78bLwvsdeMH5-19" value="Pool" style="swimlane;html=1;childLayout=stackLayout;resizeParent=1;resizeParentMax=0;horizontal=0;startSize=20;horizontalStack=0;" vertex="1" parent="1">
          <mxGeometry x="29" y="120" width="1040" height="360" as="geometry" />
        </mxCell>
        <mxCell id="dNxyNK7c78bLwvsdeMH5-20" value="Customer" style="swimlane;html=1;startSize=20;horizontal=0;" vertex="1" parent="dNxyNK7c78bLwvsdeMH5-19">
          <mxGeometry x="20" width="1020" height="120" as="geometry">
            <mxRectangle x="20" width="430" height="30" as="alternateBounds" />
          </mxGeometry>
        </mxCell>
        <mxCell id="dNxyNK7c78bLwvsdeMH5-25" value="" style="edgeStyle=orthogonalEdgeStyle;rounded=0;orthogonalLoop=1;jettySize=auto;html=1;" edge="1" parent="dNxyNK7c78bLwvsdeMH5-20" source="dNxyNK7c78bLwvsdeMH5-23" target="dNxyNK7c78bLwvsdeMH5-24">
          <mxGeometry relative="1" as="geometry" />
        </mxCell>
        <mxCell id="dNxyNK7c78bLwvsdeMH5-23" value="" style="ellipse;whiteSpace=wrap;html=1;" vertex="1" parent="dNxyNK7c78bLwvsdeMH5-20">
          <mxGeometry x="40" y="40" width="40" height="40" as="geometry" />
        </mxCell>
        <mxCell id="dNxyNK7c78bLwvsdeMH5-24" value="Select movie, time" style="rounded=0;whiteSpace=wrap;html=1;fontFamily=Helvetica;fontSize=12;fontColor=#000000;align=center;" vertex="1" parent="dNxyNK7c78bLwvsdeMH5-20">
          <mxGeometry x="120" y="30" width="80" height="60" as="geometry" />
        </mxCell>
        <mxCell id="dNxyNK7c78bLwvsdeMH5-32" value="" style="ellipse;whiteSpace=wrap;html=1;" vertex="1" parent="dNxyNK7c78bLwvsdeMH5-20">
          <mxGeometry x="940" y="30" width="40" height="40" as="geometry" />
        </mxCell>
        <mxCell id="2ANSpy6e0lPyAKpGVs6G-14" value="" style="edgeStyle=orthogonalEdgeStyle;rounded=0;orthogonalLoop=1;jettySize=auto;html=1;" edge="1" parent="dNxyNK7c78bLwvsdeMH5-20" source="2ANSpy6e0lPyAKpGVs6G-12" target="dNxyNK7c78bLwvsdeMH5-24">
          <mxGeometry relative="1" as="geometry" />
        </mxCell>
        <mxCell id="2ANSpy6e0lPyAKpGVs6G-28" style="edgeStyle=orthogonalEdgeStyle;rounded=0;orthogonalLoop=1;jettySize=auto;html=1;entryX=0.013;entryY=1.019;entryDx=0;entryDy=0;entryPerimeter=0;" edge="1" parent="dNxyNK7c78bLwvsdeMH5-20" source="2ANSpy6e0lPyAKpGVs6G-12" target="2ANSpy6e0lPyAKpGVs6G-58">
          <mxGeometry relative="1" as="geometry">
            <Array as="points">
              <mxPoint x="260" y="10" />
              <mxPoint x="951" y="10" />
            </Array>
          </mxGeometry>
        </mxCell>
        <mxCell id="2ANSpy6e0lPyAKpGVs6G-12" value="" style="rhombus;whiteSpace=wrap;html=1;" vertex="1" parent="dNxyNK7c78bLwvsdeMH5-20">
          <mxGeometry x="240" y="40" width="40" height="40" as="geometry" />
        </mxCell>
        <mxCell id="2ANSpy6e0lPyAKpGVs6G-15" value="re-select" style="text;html=1;align=center;verticalAlign=middle;resizable=0;points=[];autosize=1;strokeColor=none;fillColor=none;" vertex="1" parent="dNxyNK7c78bLwvsdeMH5-20">
          <mxGeometry x="191" y="30" width="70" height="30" as="geometry" />
        </mxCell>
        <mxCell id="2ANSpy6e0lPyAKpGVs6G-29" style="edgeStyle=orthogonalEdgeStyle;rounded=0;orthogonalLoop=1;jettySize=auto;html=1;" edge="1" parent="dNxyNK7c78bLwvsdeMH5-20" source="2ANSpy6e0lPyAKpGVs6G-26">
          <mxGeometry relative="1" as="geometry">
            <mxPoint x="385" y="10" as="targetPoint" />
          </mxGeometry>
        </mxCell>
        <mxCell id="2ANSpy6e0lPyAKpGVs6G-34" value="" style="edgeStyle=orthogonalEdgeStyle;rounded=0;orthogonalLoop=1;jettySize=auto;html=1;" edge="1" parent="dNxyNK7c78bLwvsdeMH5-20" source="2ANSpy6e0lPyAKpGVs6G-26" target="2ANSpy6e0lPyAKpGVs6G-33">
          <mxGeometry relative="1" as="geometry" />
        </mxCell>
        <mxCell id="2ANSpy6e0lPyAKpGVs6G-26" value="" style="rhombus;whiteSpace=wrap;html=1;" vertex="1" parent="dNxyNK7c78bLwvsdeMH5-20">
          <mxGeometry x="365" y="40" width="40" height="40" as="geometry" />
        </mxCell>
        <mxCell id="2ANSpy6e0lPyAKpGVs6G-30" value="don&#39;t want watch" style="text;html=1;align=center;verticalAlign=middle;resizable=0;points=[];autosize=1;strokeColor=none;fillColor=none;" vertex="1" parent="dNxyNK7c78bLwvsdeMH5-20">
          <mxGeometry x="255" y="10" width="110" height="30" as="geometry" />
        </mxCell>
        <mxCell id="2ANSpy6e0lPyAKpGVs6G-31" value="No good seat" style="text;html=1;align=center;verticalAlign=middle;resizable=0;points=[];autosize=1;strokeColor=none;fillColor=none;" vertex="1" parent="dNxyNK7c78bLwvsdeMH5-20">
          <mxGeometry x="390" y="10" width="90" height="30" as="geometry" />
        </mxCell>
        <mxCell id="2ANSpy6e0lPyAKpGVs6G-33" value="Choose seat" style="whiteSpace=wrap;html=1;" vertex="1" parent="dNxyNK7c78bLwvsdeMH5-20">
          <mxGeometry x="450" y="35" width="80" height="50" as="geometry" />
        </mxCell>
        <mxCell id="2ANSpy6e0lPyAKpGVs6G-40" value="Pay by cash" style="whiteSpace=wrap;html=1;" vertex="1" parent="dNxyNK7c78bLwvsdeMH5-20">
          <mxGeometry x="660" y="45" width="80" height="50" as="geometry" />
        </mxCell>
        <mxCell id="2ANSpy6e0lPyAKpGVs6G-42" value="" style="rhombus;whiteSpace=wrap;html=1;" vertex="1" parent="dNxyNK7c78bLwvsdeMH5-20">
          <mxGeometry x="580" y="50" width="40" height="40" as="geometry" />
        </mxCell>
        <mxCell id="2ANSpy6e0lPyAKpGVs6G-43" style="edgeStyle=orthogonalEdgeStyle;rounded=0;orthogonalLoop=1;jettySize=auto;html=1;entryX=0;entryY=0.5;entryDx=0;entryDy=0;" edge="1" parent="dNxyNK7c78bLwvsdeMH5-20" source="2ANSpy6e0lPyAKpGVs6G-42" target="2ANSpy6e0lPyAKpGVs6G-40">
          <mxGeometry relative="1" as="geometry" />
        </mxCell>
        <mxCell id="2ANSpy6e0lPyAKpGVs6G-50" value="Pay by card" style="whiteSpace=wrap;html=1;" vertex="1" parent="dNxyNK7c78bLwvsdeMH5-20">
          <mxGeometry x="821" y="50" width="100" height="50" as="geometry" />
        </mxCell>
        <mxCell id="2ANSpy6e0lPyAKpGVs6G-51" style="edgeStyle=orthogonalEdgeStyle;rounded=0;orthogonalLoop=1;jettySize=auto;html=1;entryX=0.5;entryY=0;entryDx=0;entryDy=0;" edge="1" parent="dNxyNK7c78bLwvsdeMH5-20" source="2ANSpy6e0lPyAKpGVs6G-42" target="2ANSpy6e0lPyAKpGVs6G-50">
          <mxGeometry relative="1" as="geometry">
            <mxPoint x="871" y="25" as="targetPoint" />
            <Array as="points">
              <mxPoint x="600" y="25" />
              <mxPoint x="871" y="25" />
            </Array>
          </mxGeometry>
        </mxCell>
        <mxCell id="2ANSpy6e0lPyAKpGVs6G-58" value="End point" style="text;html=1;align=center;verticalAlign=middle;resizable=0;points=[];autosize=1;strokeColor=none;fillColor=none;" vertex="1" parent="dNxyNK7c78bLwvsdeMH5-20">
          <mxGeometry x="950" y="5" width="70" height="30" as="geometry" />
        </mxCell>
        <mxCell id="2ANSpy6e0lPyAKpGVs6G-59" value="Start point" style="text;html=1;align=center;verticalAlign=middle;resizable=0;points=[];autosize=1;strokeColor=none;fillColor=none;" vertex="1" parent="dNxyNK7c78bLwvsdeMH5-20">
          <mxGeometry x="20" y="5" width="80" height="30" as="geometry" />
        </mxCell>
        <mxCell id="-U2JSi1peLqx0qgj_ZYE-1" value="" style="ellipse;whiteSpace=wrap;html=1;aspect=fixed;" vertex="1" parent="dNxyNK7c78bLwvsdeMH5-20">
          <mxGeometry x="945" y="35" width="30" height="30" as="geometry" />
        </mxCell>
        <mxCell id="dNxyNK7c78bLwvsdeMH5-21" value="Ticket Seller&lt;br&gt;" style="swimlane;html=1;startSize=20;horizontal=0;" vertex="1" parent="dNxyNK7c78bLwvsdeMH5-19">
          <mxGeometry x="20" y="120" width="1020" height="120" as="geometry" />
        </mxCell>
        <mxCell id="dNxyNK7c78bLwvsdeMH5-26" value="Input to the backend system" style="rounded=0;whiteSpace=wrap;html=1;fontFamily=Helvetica;fontSize=12;fontColor=#000000;align=center;" vertex="1" parent="dNxyNK7c78bLwvsdeMH5-21">
          <mxGeometry x="120" y="30" width="80" height="60" as="geometry" />
        </mxCell>
        <mxCell id="2ANSpy6e0lPyAKpGVs6G-9" value="Tell customer no more seat" style="whiteSpace=wrap;html=1;" vertex="1" parent="dNxyNK7c78bLwvsdeMH5-21">
          <mxGeometry x="220" y="30" width="80" height="60" as="geometry" />
        </mxCell>
        <mxCell id="2ANSpy6e0lPyAKpGVs6G-21" value="Let consumer select seat" style="whiteSpace=wrap;html=1;" vertex="1" parent="dNxyNK7c78bLwvsdeMH5-21">
          <mxGeometry x="340" y="30" width="90" height="60" as="geometry" />
        </mxCell>
        <mxCell id="2ANSpy6e0lPyAKpGVs6G-35" value="Generate Bill" style="whiteSpace=wrap;html=1;" vertex="1" parent="dNxyNK7c78bLwvsdeMH5-21">
          <mxGeometry x="450" y="30" width="90" height="60" as="geometry" />
        </mxCell>
        <mxCell id="2ANSpy6e0lPyAKpGVs6G-61" value="&lt;font style=&quot;font-size: 10px;&quot;&gt;Select Payment Method&lt;/font&gt;" style="text;html=1;align=center;verticalAlign=middle;resizable=0;points=[];autosize=1;strokeColor=none;fillColor=none;" vertex="1" parent="dNxyNK7c78bLwvsdeMH5-21">
          <mxGeometry x="591" y="80" width="130" height="30" as="geometry" />
        </mxCell>
        <mxCell id="dNxyNK7c78bLwvsdeMH5-22" value="Backend System" style="swimlane;html=1;startSize=20;horizontal=0;" vertex="1" parent="dNxyNK7c78bLwvsdeMH5-19">
          <mxGeometry x="20" y="240" width="1020" height="120" as="geometry" />
        </mxCell>
        <mxCell id="2ANSpy6e0lPyAKpGVs6G-18" style="edgeStyle=orthogonalEdgeStyle;rounded=0;orthogonalLoop=1;jettySize=auto;html=1;entryX=0;entryY=0.5;entryDx=0;entryDy=0;" edge="1" parent="dNxyNK7c78bLwvsdeMH5-22" source="dNxyNK7c78bLwvsdeMH5-36" target="2ANSpy6e0lPyAKpGVs6G-17">
          <mxGeometry relative="1" as="geometry" />
        </mxCell>
        <mxCell id="dNxyNK7c78bLwvsdeMH5-36" value="" style="rhombus;whiteSpace=wrap;html=1;fontFamily=Helvetica;fontSize=12;fontColor=#000000;align=center;" vertex="1" parent="dNxyNK7c78bLwvsdeMH5-22">
          <mxGeometry x="140" y="30" width="40" height="40" as="geometry" />
        </mxCell>
        <mxCell id="2ANSpy6e0lPyAKpGVs6G-11" style="edgeStyle=orthogonalEdgeStyle;rounded=0;orthogonalLoop=1;jettySize=auto;html=1;exitX=0.5;exitY=1;exitDx=0;exitDy=0;" edge="1" parent="dNxyNK7c78bLwvsdeMH5-22" source="dNxyNK7c78bLwvsdeMH5-36" target="dNxyNK7c78bLwvsdeMH5-36">
          <mxGeometry relative="1" as="geometry" />
        </mxCell>
        <mxCell id="2ANSpy6e0lPyAKpGVs6G-7" value="No more seat" style="text;html=1;align=center;verticalAlign=middle;resizable=0;points=[];autosize=1;strokeColor=none;fillColor=none;" vertex="1" parent="dNxyNK7c78bLwvsdeMH5-22">
          <mxGeometry x="250" width="100" height="30" as="geometry" />
        </mxCell>
        <mxCell id="2ANSpy6e0lPyAKpGVs6G-17" value="Return the seat vacancy" style="whiteSpace=wrap;html=1;" vertex="1" parent="dNxyNK7c78bLwvsdeMH5-22">
          <mxGeometry x="340" y="60" width="86" height="40" as="geometry" />
        </mxCell>
        <mxCell id="2ANSpy6e0lPyAKpGVs6G-19" value="Have seat" style="text;html=1;align=center;verticalAlign=middle;resizable=0;points=[];autosize=1;strokeColor=none;fillColor=none;" vertex="1" parent="dNxyNK7c78bLwvsdeMH5-22">
          <mxGeometry x="260" y="78" width="80" height="30" as="geometry" />
        </mxCell>
        <mxCell id="2ANSpy6e0lPyAKpGVs6G-49" style="edgeStyle=orthogonalEdgeStyle;rounded=0;orthogonalLoop=1;jettySize=auto;html=1;" edge="1" parent="dNxyNK7c78bLwvsdeMH5-22" source="2ANSpy6e0lPyAKpGVs6G-47">
          <mxGeometry relative="1" as="geometry">
            <mxPoint x="960" y="-170" as="targetPoint" />
            <Array as="points">
              <mxPoint x="960" y="90" />
            </Array>
          </mxGeometry>
        </mxCell>
        <mxCell id="2ANSpy6e0lPyAKpGVs6G-47" value="Print Ticket" style="whiteSpace=wrap;html=1;" vertex="1" parent="dNxyNK7c78bLwvsdeMH5-22">
          <mxGeometry x="800" y="70" width="80" height="40" as="geometry" />
        </mxCell>
        <mxCell id="2ANSpy6e0lPyAKpGVs6G-54" value="" style="edgeStyle=orthogonalEdgeStyle;rounded=0;orthogonalLoop=1;jettySize=auto;html=1;" edge="1" parent="dNxyNK7c78bLwvsdeMH5-22" source="2ANSpy6e0lPyAKpGVs6G-53" target="2ANSpy6e0lPyAKpGVs6G-47">
          <mxGeometry relative="1" as="geometry" />
        </mxCell>
        <mxCell id="2ANSpy6e0lPyAKpGVs6G-53" value="Write-off" style="whiteSpace=wrap;html=1;" vertex="1" parent="dNxyNK7c78bLwvsdeMH5-22">
          <mxGeometry x="800" y="10" width="80" height="40" as="geometry" />
        </mxCell>
        <mxCell id="2ANSpy6e0lPyAKpGVs6G-1" value="" style="endArrow=classic;html=1;rounded=0;exitX=0.5;exitY=1;exitDx=0;exitDy=0;entryX=0.5;entryY=0;entryDx=0;entryDy=0;" edge="1" parent="dNxyNK7c78bLwvsdeMH5-19" source="dNxyNK7c78bLwvsdeMH5-24" target="dNxyNK7c78bLwvsdeMH5-26">
          <mxGeometry width="50" height="50" relative="1" as="geometry">
            <mxPoint x="180" y="230" as="sourcePoint" />
            <mxPoint x="230" y="180" as="targetPoint" />
          </mxGeometry>
        </mxCell>
        <mxCell id="2ANSpy6e0lPyAKpGVs6G-2" style="edgeStyle=orthogonalEdgeStyle;rounded=0;orthogonalLoop=1;jettySize=auto;html=1;exitX=0.5;exitY=1;exitDx=0;exitDy=0;entryX=0.5;entryY=0;entryDx=0;entryDy=0;" edge="1" parent="dNxyNK7c78bLwvsdeMH5-19" source="dNxyNK7c78bLwvsdeMH5-26" target="dNxyNK7c78bLwvsdeMH5-36">
          <mxGeometry relative="1" as="geometry">
            <mxPoint x="179.9999999999999" y="260" as="targetPoint" />
          </mxGeometry>
        </mxCell>
        <mxCell id="2ANSpy6e0lPyAKpGVs6G-5" style="edgeStyle=orthogonalEdgeStyle;rounded=0;orthogonalLoop=1;jettySize=auto;html=1;entryX=0.5;entryY=1;entryDx=0;entryDy=0;" edge="1" parent="dNxyNK7c78bLwvsdeMH5-19" source="dNxyNK7c78bLwvsdeMH5-36" target="2ANSpy6e0lPyAKpGVs6G-9">
          <mxGeometry relative="1" as="geometry">
            <mxPoint x="260" y="310" as="targetPoint" />
          </mxGeometry>
        </mxCell>
        <mxCell id="2ANSpy6e0lPyAKpGVs6G-13" value="" style="edgeStyle=orthogonalEdgeStyle;rounded=0;orthogonalLoop=1;jettySize=auto;html=1;" edge="1" parent="dNxyNK7c78bLwvsdeMH5-19" source="2ANSpy6e0lPyAKpGVs6G-9" target="2ANSpy6e0lPyAKpGVs6G-12">
          <mxGeometry relative="1" as="geometry" />
        </mxCell>
        <mxCell id="2ANSpy6e0lPyAKpGVs6G-24" style="edgeStyle=orthogonalEdgeStyle;rounded=0;orthogonalLoop=1;jettySize=auto;html=1;entryX=0.5;entryY=1;entryDx=0;entryDy=0;" edge="1" parent="dNxyNK7c78bLwvsdeMH5-19" source="2ANSpy6e0lPyAKpGVs6G-17" target="2ANSpy6e0lPyAKpGVs6G-21">
          <mxGeometry relative="1" as="geometry" />
        </mxCell>
        <mxCell id="2ANSpy6e0lPyAKpGVs6G-27" value="" style="edgeStyle=orthogonalEdgeStyle;rounded=0;orthogonalLoop=1;jettySize=auto;html=1;" edge="1" parent="dNxyNK7c78bLwvsdeMH5-19" source="2ANSpy6e0lPyAKpGVs6G-21" target="2ANSpy6e0lPyAKpGVs6G-26">
          <mxGeometry relative="1" as="geometry" />
        </mxCell>
        <mxCell id="2ANSpy6e0lPyAKpGVs6G-36" style="edgeStyle=orthogonalEdgeStyle;rounded=0;orthogonalLoop=1;jettySize=auto;html=1;entryX=0.444;entryY=0;entryDx=0;entryDy=0;entryPerimeter=0;" edge="1" parent="dNxyNK7c78bLwvsdeMH5-19" source="2ANSpy6e0lPyAKpGVs6G-33" target="2ANSpy6e0lPyAKpGVs6G-35">
          <mxGeometry relative="1" as="geometry" />
        </mxCell>
        <mxCell id="2ANSpy6e0lPyAKpGVs6G-55" style="edgeStyle=orthogonalEdgeStyle;rounded=0;orthogonalLoop=1;jettySize=auto;html=1;" edge="1" parent="dNxyNK7c78bLwvsdeMH5-19" source="2ANSpy6e0lPyAKpGVs6G-50">
          <mxGeometry relative="1" as="geometry">
            <mxPoint x="891" y="250" as="targetPoint" />
          </mxGeometry>
        </mxCell>
        <mxCell id="2ANSpy6e0lPyAKpGVs6G-41" style="edgeStyle=orthogonalEdgeStyle;rounded=0;orthogonalLoop=1;jettySize=auto;html=1;entryX=0.5;entryY=1;entryDx=0;entryDy=0;" edge="1" parent="1" source="2ANSpy6e0lPyAKpGVs6G-37" target="2ANSpy6e0lPyAKpGVs6G-42">
          <mxGeometry relative="1" as="geometry">
            <mxPoint x="710" y="280" as="targetPoint" />
            <Array as="points">
              <mxPoint x="720" y="430" />
              <mxPoint x="720" y="341" />
              <mxPoint x="650" y="341" />
              <mxPoint x="650" y="280" />
              <mxPoint x="649" y="280" />
            </Array>
          </mxGeometry>
        </mxCell>
        <mxCell id="2ANSpy6e0lPyAKpGVs6G-37" value="Generate bill according to movie info" style="whiteSpace=wrap;html=1;" vertex="1" parent="1">
          <mxGeometry x="580" y="400" width="120" height="60" as="geometry" />
        </mxCell>
        <mxCell id="2ANSpy6e0lPyAKpGVs6G-38" value="" style="edgeStyle=orthogonalEdgeStyle;rounded=0;orthogonalLoop=1;jettySize=auto;html=1;" edge="1" parent="1" source="2ANSpy6e0lPyAKpGVs6G-35" target="2ANSpy6e0lPyAKpGVs6G-37">
          <mxGeometry relative="1" as="geometry">
            <Array as="points">
              <mxPoint x="635" y="380" />
              <mxPoint x="635" y="380" />
            </Array>
          </mxGeometry>
        </mxCell>
        <mxCell id="2ANSpy6e0lPyAKpGVs6G-52" style="edgeStyle=orthogonalEdgeStyle;rounded=0;orthogonalLoop=1;jettySize=auto;html=1;entryX=0;entryY=0.5;entryDx=0;entryDy=0;exitX=0.5;exitY=1;exitDx=0;exitDy=0;" edge="1" parent="1" source="2ANSpy6e0lPyAKpGVs6G-45" target="2ANSpy6e0lPyAKpGVs6G-47">
          <mxGeometry relative="1" as="geometry" />
        </mxCell>
        <mxCell id="2ANSpy6e0lPyAKpGVs6G-45" value="Write-off" style="whiteSpace=wrap;html=1;" vertex="1" parent="1">
          <mxGeometry x="770" y="270" width="120" height="50" as="geometry" />
        </mxCell>
        <mxCell id="2ANSpy6e0lPyAKpGVs6G-46" style="edgeStyle=orthogonalEdgeStyle;rounded=0;orthogonalLoop=1;jettySize=auto;html=1;entryX=0.592;entryY=0.025;entryDx=0;entryDy=0;entryPerimeter=0;" edge="1" parent="1" source="2ANSpy6e0lPyAKpGVs6G-40" target="2ANSpy6e0lPyAKpGVs6G-45">
          <mxGeometry relative="1" as="geometry">
            <Array as="points">
              <mxPoint x="749" y="250" />
              <mxPoint x="841" y="250" />
            </Array>
          </mxGeometry>
        </mxCell>
      </root>
    </mxGraphModel>
  </diagram>
</mxfile>
